<?xml version="1.0" standalone="no"?>
<!DOCTYPE svg PUBLIC "-//W3C//DTD SVG 20010904//EN"
 "http://www.w3.org/TR/2001/REC-SVG-20010904/DTD/svg10.dtd">
<svg version="1.0" xmlns="http://www.w3.org/2000/svg"
 width="512.000000pt" height="512.000000pt" viewBox="0 0 512.000000 512.000000"
 preserveAspectRatio="xMidYMid meet">
<metadata>
Created by potrace 1.14, written by Peter Selinger 2001-2017
</metadata>
<g transform="translate(0.000000,512.000000) scale(0.100000,-0.100000)"
fill="#000000" stroke="none">
<path d="M755 4955 c-56 -24 -246 -238 -355 -400 -191 -285 -335 -675 -365
-990 -4 -38 -8 -81 -11 -95 -5 -29 -5 -291 0 -335 2 -16 6 -61 10 -100 28
-281 156 -659 301 -890 116 -185 198 -291 321 -417 97 -100 130 -114 186 -81
43 25 60 59 54 106 -3 31 -18 52 -73 109 -37 38 -73 75 -79 82 -34 36 -166
214 -207 280 -94 147 -226 465 -251 601 -26 142 -37 211 -44 275 -9 73 -8 385
1 425 3 11 8 47 12 79 10 94 68 311 114 427 104 265 247 489 445 695 51 53 78
90 82 112 16 83 -65 150 -141 117z"/>
<path d="M4303 4958 c-42 -11 -73 -52 -73 -95 0 -47 11 -63 92 -146 294 -302
508 -752 554 -1162 3 -33 8 -73 10 -90 5 -47 5 -311 0 -337 -3 -13 -7 -48 -10
-78 -4 -46 -21 -139 -40 -225 -73 -334 -263 -681 -526 -958 -79 -83 -84 -93
-81 -136 4 -70 69 -113 135 -91 88 29 348 355 479 601 94 175 189 444 221 624
22 121 21 119 32 225 14 149 7 445 -12 534 -3 12 -11 57 -20 102 -76 425 -300
849 -615 1165 -70 69 -94 81 -146 67z"/>
<path d="M1271 4446 c-57 -20 -225 -208 -309 -346 -100 -166 -190 -415 -207
-576 -4 -32 -8 -71 -11 -85 -13 -82 -3 -322 16 -399 5 -19 11 -51 14 -70 21
-136 115 -363 213 -513 57 -87 59 -89 149 -191 91 -104 127 -129 177 -123 44
6 62 19 84 60 25 48 10 85 -63 162 -150 156 -248 317 -312 510 -51 152 -66
248 -67 415 0 159 6 204 49 380 13 48 66 177 104 250 53 101 151 236 222 305
65 63 84 98 76 140 -8 38 -46 81 -80 87 -13 3 -38 0 -55 -6z"/>
<path d="M3794 4448 c-58 -15 -92 -80 -69 -134 7 -17 36 -55 65 -85 185 -192
304 -413 355 -663 20 -100 24 -146 25 -271 1 -127 -6 -186 -36 -308 -60 -240
-161 -427 -329 -606 -47 -50 -86 -98 -86 -106 -1 -8 -2 -21 -3 -27 -4 -25 37
-87 65 -99 52 -21 90 -5 167 74 225 228 359 495 418 832 81 465 -81 976 -417
1315 -78 80 -102 92 -155 78z"/>
<path d="M1760 3929 c-77 -45 -188 -192 -240 -320 -107 -258 -68 -577 95 -795
52 -68 115 -133 147 -150 56 -29 114 -11 143 46 23 44 11 88 -38 139 -67 71
-69 73 -102 126 -36 57 -73 149 -83 209 -4 23 -6 84 -6 136 3 156 60 290 176
410 31 32 59 72 63 88 10 46 -17 100 -59 117 -46 19 -54 19 -96 -6z"/>
<path d="M3275 3940 c-47 -18 -77 -78 -64 -125 5 -16 35 -58 68 -93 122 -128
178 -279 168 -452 -9 -164 -64 -289 -179 -409 -55 -57 -64 -76 -58 -125 6 -54
65 -93 124 -82 39 7 134 99 192 185 213 316 177 746 -86 1024 -30 33 -62 63
-71 68 -26 13 -72 18 -94 9z"/>
<path d="M2459 3631 c-104 -33 -176 -98 -222 -199 -16 -36 -21 -67 -22 -132 0
-77 3 -92 33 -152 36 -74 102 -140 167 -168 l40 -17 0 -1439 c1 -1130 3 -1444
13 -1462 28 -50 97 -69 149 -41 56 30 53 -48 53 1512 l0 1435 31 11 c80 28
166 128 194 226 53 181 -52 369 -237 426 -74 23 -126 23 -199 0z m176 -220
c60 -38 78 -131 37 -188 -28 -40 -81 -64 -126 -59 -86 12 -124 67 -117 173 1
29 55 81 94 91 35 9 81 2 112 -17z"/>
</g>
</svg>
